<?xml version="1.0" encoding="utf-8"?>
<!-- Svg Vector Icons : http://www.onlinewebfonts.com/icon -->
<!DOCTYPE svg PUBLIC "-//W3C//DTD SVG 1.1//EN" "http://www.w3.org/Graphics/SVG/1.1/DTD/svg11.dtd">
<svg version="1.1" xmlns="http://www.w3.org/2000/svg" xmlns:xlink="http://www.w3.org/1999/xlink" x="0px" y="0px" viewBox="0 0 1000 1000" enable-background="new 0 0 1000 1000" xml:space="preserve">
<metadata> Svg Vector Icons : http://www.onlinewebfonts.com/icon </metadata>
<g><path d="M489.2,54.5H143.6c-49.2,0-89.1,39.9-89.1,89.1v712.7c0,49.2,39.9,89.1,89.1,89.1h712.7c49.2,0,89.1-39.9,89.1-89.1V512.2c0-6.7,5.5-12.2,12.2-12.2h22c5.7,0,10.4,4.6,10.4,10.4v346c0,73.8-59.8,133.6-133.6,133.6H143.6C69.8,990,10,930.2,10,856.4V143.6C10,69.8,69.8,10,143.6,10h345.2c6.2,0,11.2,5,11.2,11.2v22.6C500,49.7,495.2,54.5,489.2,54.5z"/><path d="M947.5,169.3L856.2,78c-19.2-19.2-50.3-19.2-69.5,0L290.6,574.2c-0.5,0.5-0.9,1.1-1.1,1.8l-15.4,46.2l-46,138.1c-9.3,28,5.9,43.3,33.9,33.9l183.9-61.3v0l501.5-500.6C964.8,214.9,964.9,186.7,947.5,169.3z M426,689.2L367.6,712l-78.5,26.2c-3.1,1-6.1-1.9-5.1-5.1l25.2-75.7l0.1,0l24.7-63.7c0,0,220.2-220.3,364.6-364.7l94.4,94.4C650.1,466.1,427,688.6,426,689.2z M910.4,206.4c0,0-34.8,34.7-85.7,85.6l-94.4-94.4c41.6-41.6,73.2-73.2,85.6-85.6c3.2-3.2,8.2-3.2,11.4,0c16.9,16.9,66.6,66.7,83.3,83.4C913.5,198.4,913.4,203.3,910.4,206.4z"/></g>
</svg>