<svg xmlns="http://www.w3.org/2000/svg" width="16" height="16" viewBox="0 0 16 16"><g transform="translate(0 -1036.362)"><path fill="#249fe6" style="line-height:normal;text-indent:0;text-align:start;text-decoration-line:none;text-decoration-style:solid;text-decoration-color:#000;text-transform:none;block-progression:tb;isolation:auto;mix-blend-mode:normal;marker:none" d="m 5.0684877,1036.3622 c -2.7927347,0 -5.06800992863,2.2752 -5.06798461661,5.068 3.582758e-5,2.7927 2.27529281661,5.068 5.06798461661,5.068 1.2163342,0 2.3187485,-0.45 3.1931233,-1.1679 l 1.509654,1.5096 -0.3632545,0.3652 a 0.50001291,0.50001291 0 0 0 0,0.707 l 4.3024165,4.3024 a 0.50001291,0.50001291 0 0 0 0.197251,0.1231 0.50001291,0.50001291 0 0 0 0.509728,-0.1231 l 1.435441,-1.4335 a 0.50001291,0.50001291 0 0 0 0.121084,-0.5116 0.50001291,0.50001291 0 0 0 -0.121084,-0.1953 l -4.302417,-4.3044 a 0.50001291,0.50001291 0 0 0 -0.708932,0 l -0.363254,0.3632 -1.511607,-1.5096 c 0.7178009,-0.8749 1.167867,-1.9766 1.167883,-3.1931 2.5e-5,-2.7928 -2.2732976,-5.068 -5.0660323,-5.068 z m 0,0.9999 c 2.2523314,0 4.066126,1.8157 4.0661056,4.0681 -2.89e-5,2.2523 -1.8138094,4.068 -4.0661056,4.068 -2.2522962,0 -4.0680297,-1.8157 -4.0680586,-4.068 -2.04e-5,-2.2524 1.8157273,-4.0681 4.0680586,-4.0681 z m 6.1284533,9.4681 3.595437,3.5973 -0.728462,0.7266 -3.595437,-3.5955 0.0098,-0.01 0.0059,0 0.706978,-0.707 -0.0059,0 0.01172,-0.012 z" color="#000" font-family="sans-serif" font-weight="400" overflow="visible" white-space="normal"/><path fill="#c2e4f8" d="m 5.0684877,1037.3621 c 2.2523314,0 4.066126,1.8157 4.0661056,4.0681 -2.89e-5,2.2523 -1.8138094,4.068 -4.0661056,4.068 -2.2522962,0 -4.0680297,-1.8157 -4.0680586,-4.068 -2.04e-5,-2.2524 1.8157273,-4.0681 4.0680586,-4.0681 z m 6.1284533,9.4681 3.595437,3.5973 -0.728462,0.7266 -3.595437,-3.5955 0.0098,-0.01 0.0059,0 0.706978,-0.707 -0.0059,0 0.01172,-0.012 z" color="#000" font-family="sans-serif" font-weight="400" overflow="visible" white-space="normal" style="line-height:normal;text-indent:0;text-align:start;text-decoration-line:none;text-decoration-style:solid;text-decoration-color:#000;text-transform:none;block-progression:tb;isolation:auto;mix-blend-mode:normal;marker:none"/></g></svg>